<svg xmlns="http://www.w3.org/2000/svg" width="48" height="48" viewBox="0 0 48 48">
  <path fill="#25D366" d="M24 4C12.954 4 4 12.954 4 24c0 3.528.917 6.844 2.523 9.723L4.03 42.97a1 1 0 0 0 1.228 1.228l9.247-2.493A19.893 19.893 0 0 0 24 44c11.046 0 20-8.954 20-20S35.046 4 24 4z"/>
  <path fill="#FFF" d="M34.868 29.114c-.466 1.312-2.752 2.562-3.787 2.652-1.035.09-2.002.468-6.736-1.402-5.68-2.244-9.273-8.066-9.553-8.436-.271-.37-2.243-2.987-2.243-5.695 0-2.708 1.422-4.04 1.926-4.59a2.064 2.064 0 0 1 1.493-.703c.371 0 .743.004 1.064.02.342.016.8-.13 1.252.954.466.118 1.161 2.831 1.261 3.037.1.206.168.447.034.717-.134.271-.2.44-.394.677-.193.237-.408.529-.583.71-.193.2-.394.416-.17.814.225.394 1 1.648 2.146 2.668 1.475 1.31 2.72 1.716 3.105 1.91.386.194.611.162.836-.1.226-.261.97-1.131 1.229-1.519.26-.387.517-.324.868-.193.352.13 2.23 1.051 2.611 1.242.38.19.634.287.734.44.1.154.1.891-.366 2.203z"/>
</svg>
